# Blender v2.79 (sub 0) OBJ File: ''
# www.blender.org
o Plane
v -0.273928 0.168134 0.000000
v -0.337214 0.291683 0.000000
v -0.420636 -0.267679 0.000000
v -0.483922 -0.145564 0.000000
v -0.453521 -0.054957 0.000000
v -0.383596 -0.157285 0.000000
v -0.386116 -0.319458 0.000000
v -0.349077 -0.209065 0.000000
v -0.242863 -0.000730 0.000000
v -0.242863 0.082267 0.000000
v -0.242863 -0.133055 0.000000
v -0.242863 -0.050058 0.000000
v -0.162317 -0.229847 0.000000
v -0.162317 -0.183396 0.000000
v 0.273928 0.168134 0.000000
v 0.337214 0.291683 0.000000
v 0.000000 0.168128 0.000000
v 0.000000 0.291683 0.000000
v 0.420636 -0.267679 0.000000
v 0.483922 -0.145564 0.000000
v 0.453521 -0.054957 0.000000
v 0.383596 -0.157285 0.000000
v 0.386116 -0.319458 0.000000
v 0.349077 -0.209065 0.000000
v 0.242863 -0.000730 0.000000
v 0.000000 -0.000730 0.000000
v 0.242863 0.082267 0.000000
v 0.000000 0.082267 0.000000
v 0.242863 -0.133055 0.000000
v 0.000000 -0.133055 0.000000
v 0.242863 -0.050058 0.000000
v 0.000000 -0.050058 0.000000
v 0.162317 -0.229847 0.000000
v 0.000000 -0.229847 0.000000
v 0.162317 -0.183396 0.000000
v 0.000000 -0.183396 0.000000
vt 0.224394 0.697857
vt 0.500000 0.822164
vt 0.160721 0.822164
vt 0.114054 0.370445
vt 0.013114 0.382237
vt 0.076788 0.259375
vt 0.043701 0.473400
vt 0.148785 0.318348
vt 0.500000 0.527959
vt 0.255650 0.611465
vt 0.255650 0.527959
vt 0.500000 0.394824
vt 0.255650 0.478329
vt 0.255650 0.394824
vt 0.500000 0.297439
vt 0.336689 0.344174
vt 0.336689 0.297439
vt 0.775606 0.697857
vt 0.500000 0.697852
vt 0.885946 0.370445
vt 0.986886 0.382237
vt 0.956298 0.473400
vt 0.839279 0.822164
vt 0.851215 0.318348
vt 0.923212 0.259375
vt 0.744350 0.611465
vt 0.744350 0.527959
vt 0.744350 0.478329
vt 0.744350 0.394824
vt 0.663311 0.344174
vt 0.663311 0.297439
vt 0.111519 0.207279
vt 0.500000 0.611465
vt 0.500000 0.478329
vt 0.500000 0.344174
vt 0.888481 0.207279
vn 0.0000 0.0000 1.0000
s off
f 1/1/1 18/2/1 2/3/1
f 6/4/1 4/5/1 3/6/1
f 1/1/1 5/7/1 6/4/1
f 3/6/1 8/8/1 6/4/1
f 26/9/1 10/10/1 9/11/1
f 30/12/1 12/13/1 11/14/1
f 34/15/1 14/16/1 13/17/1
f 15/18/1 18/2/1 17/19/1
f 22/20/1 20/21/1 21/22/1
f 15/18/1 21/22/1 16/23/1
f 24/24/1 19/25/1 22/20/1
f 27/26/1 26/9/1 25/27/1
f 31/28/1 30/12/1 29/29/1
f 35/30/1 34/15/1 33/31/1
f 1/1/1 17/19/1 18/2/1
f 6/4/1 5/7/1 4/5/1
f 1/1/1 2/3/1 5/7/1
f 3/6/1 7/32/1 8/8/1
f 26/9/1 28/33/1 10/10/1
f 30/12/1 32/34/1 12/13/1
f 34/15/1 36/35/1 14/16/1
f 15/18/1 16/23/1 18/2/1
f 22/20/1 19/25/1 20/21/1
f 15/18/1 22/20/1 21/22/1
f 24/24/1 23/36/1 19/25/1
f 27/26/1 28/33/1 26/9/1
f 31/28/1 32/34/1 30/12/1
f 35/30/1 36/35/1 34/15/1
